<?xml version="1.0" encoding="UTF-8"?>
<svg id="Layer_1" xmlns="http://www.w3.org/2000/svg" version="1.1" viewBox="0 0 334.45 332.13">
  <!-- Generator: Adobe Illustrator 30.3.0, SVG Export Plug-In . SVG Version: 2.1.3 Build 182)  -->
  <defs>
    <style>
      .st0 {
        fill: #b79737;
      }
    </style>
  </defs>
  <path class="st0" d="M251.47,305.93l-167.07.04c-19.58,0-42.88-9.21-43.21-30.56-6.42-6.91-8.68-16.47-5.89-25.89-5.47-10.21-8.03-21.41-8.7-33.45l-4.7-84.98c-3.21.46-7.05-.84-7.23-4.07-.43-7.97-.96-15.59-.76-23.72.12-4.98,2.22-10.78,4.47-15.02,1.46-2.74,6.14-1.99,8.8-1.78,4.97-12.81,16.45-20.2,29.53-23.87,9.01-2.52,18.07-3.95,27.59-3.97l49.49-.09c-2.94-1.81-5.93-3.68-8.26-6.23-4.38-4.79-3.62-11.53,1.36-15.71,4.06-3.41,9.04-5.77,14.48-7.19,19.29-5.03,50.7-5.35,65.83,6.87,5.46,4.41,6.1,11.83,1.01,16.67-2.28,2.16-4.9,3.87-7.54,5.6l52.09.21c20.3.08,47.29,7.41,54.48,27.67,2.75-.11,7.41-.93,8.8,1.74,6.92,13.25,3.91,22.47,3.89,37,0,1.45-.74,3.85-1.68,4.6-1.21.96-3.53,1.31-5.76,1.41l-3.84,69.57-1.95,23.68c-.71,8.66-3.51,16.66-7.41,24.55,2.39,9.46.72,19.32-6.08,26.5-.11,20.33-22.56,30.44-41.73,30.44ZM171.35,62.49c12.33-2.36,37.52-5.94,36.89-18-.32-6.02-10.05-10.52-17.28-12.23-15.26-3.61-31.07-3.67-46.34-.19-7.64,1.74-18.36,6.27-18.66,12.49-.09,1.98.98,4.61,2.52,6.07,7.79,7.38,17.78,8.48,28.04,10.83,4.83,1.11,9.65,2.03,14.84,1.03ZM143.96,72.25l4.45-4.92c.72-.8,1.44-2.14,2.02-3.56-2.55-.54-5.17-1.8-7.61-1.8l-57.2-.03c-19.47-.01-47.82,5.67-54.46,24.6,3.41,1.08,4.67,3.79,4.46,8.31,4.5-7.67,11.16-13.49,19.91-16.95,8.27-3.27,16.94-5.34,26.16-5.38l62.27-.27ZM301.94,101.98c-.45-4.11-1.4-7.02-2.42-10.62.25-2.1,1.84-3.61,4.1-4.36-7.02-19.56-34.59-25.04-54.17-25.05l-57.87-.02c-2.31,0-4.7,1.06-7.39,1.62.15,1.17.87,2.96,1.71,3.86l4.6,4.87,62.23.25c9.92.04,19.32,2.21,28.07,6.05,10.56,4.64,17.6,13.06,21.14,23.4ZM180.04,64.16c-8.44,5.33-17.68,4.64-26.08.2-1.94,1.53-1.17,4.67,1.19,5.83,7.44,3.64,16.68,3.88,23.96-.08,2.31-1.26,3.21-4.01.93-5.94ZM217.42,107.36l-1.13-11.61c-.32-3.29-2.96-5.5-5.89-6.55-11.9-4.28-18.26-10.27-26.71-19.6-6.94,8.31-26.16,8.36-33.02.02l-9.34,9.22c-10.52,10.39-22.24,8.95-23.11,16.98l-1.19,10.87c-.57,5.22,1.72,9.73,6.67,12.03,5.67,2.63,12.13,4.04,18.7,4.04h49.37c11.21,0,26.79-3.64,25.64-15.4ZM250.14,75.58l-56.16-.15c4.95,5.04,10.35,8.09,16.53,10.32,7.53,2.72,14.22,6.12,15.47,14.28.76,5.01,1.46,10.11,1.29,15.24-.4,12.37-19.57,18.32-31.8,18.31l-57.1-.05c-8.15,0-15.97-2.36-22.72-6.04-6.49-3.55-9.52-9.73-8.56-16.88,1.57-11.7.58-18.23,13.6-23.44,7.23-2.9,14.03-5.79,19.63-11.78l-56.05.17c-9.9.03-19.31,1.84-28.23,5.47-7.69,3.12-13.38,8.32-18.1,14.87-.89,1.24-1.73,2.62-1.83,4.11-.45,7.12-1.12,12.31-7.17,11.97,1.53,12.62,16.26,19.86,28.38,22.31,8.97,1.82,17.62,2.66,27.08,2.66h166.94c19.87-.01,50.26-3.98,54.24-24.95-6.88.13-6.78-6.27-7.47-13.56-9.59-17.05-29.09-22.8-47.97-22.85ZM32.44,92.16c.85-3.69-5.49-2.89-11.68-2.59l-2.95,8.8,13.18.14,1.45-6.35ZM316.63,98.4l-2.86-8.78c-4.22-.35-7.61-.32-11.9.35l1.64,8.68,13.13-.25ZM219.28,94.06l1.07,13.99c1.04,13.56-16.51,17.74-29.48,17.74h-47.33c-12.25-.01-29.84-4.15-29.48-16.53.15-5.27.74-10.15,1.35-15.22-4.47,3.17-5.36,15.56-4.85,21.93.75,9.28,18.07,14.35,29.04,14.35h55.86c10.88.01,27.92-5.36,28.39-14.36.35-6.73-.32-18.52-4.58-21.89ZM316.87,125.97l.52-24.94-13.06-.25-1.26,7.95,2.78-.08.19-5.21c.02-.42,1.27-1.23,1.7-1.1s1.15,1.26,1.14,1.75l-.25,8.43c-1.84,13.53-16.39,21.55-29.52,24.5-8.97,2.02-17.63,2.93-27.12,2.93H84.39c-10.14,0-19.47-.8-29.07-2.98-17.8-4.03-34.04-15.95-28.69-34.83,2.04.91,2.05,2.37,2.16,4.1l.15,2.15c.03.43,1.23.42,2.49.4l-1.29-7.98-13.08.15.52,25.59c1.04,1.09,2.22,1.54,4.31,1.6l-.62-14.49c-.17-3.89-.1-7.65.44-11.35l2.86.42c-.11,4.03-.6,8.44.11,12.35,2.19,12.12,15.81,20.66,27.94,23.88,8.92,2.37,17.8,3.61,27.31,3.61l168.1.07c16.66,0,34.18-1,48.02-9.78,20.32-12.89,11.81-28.22,14.53-30.44.4-.33,1.6-.23,1.92.18s.8,1.71.78,2.42l-.69,22.99c1.75.38,4.25-.57,4.29-2.04ZM304.3,217.33l5.19-93.2c-12.78,17.5-32.75,20.61-53.57,21.59H79.79c-21.06-.92-41.91-3.82-54.88-21.64l5.16,94.69c.54,9.86,2.88,19.01,7.31,27.62,9.07,17.67,27.34,24.95,47.02,24.96h165.61c8.48,0,16.17-1.26,23.76-4.12,20.92-7.89,29.32-28.25,30.53-49.9ZM296.55,253.31c-11.16,15.57-27.33,20.72-45.88,21.38l-166.27-.03c-17.87,0-35.96-6.29-46.56-21.29-2.38,13.94,7.32,24.66,20.71,28.4,8.01,2.24,15.87,3.36,24.52,3.36l168.89.02c6.85,0,12.8-.94,19.25-1.97,15.92-3.94,27.82-13.12,25.32-29.88ZM289.66,278.71c-4.84,3.13-9.73,5.42-15.24,7.06-7.29,1.68-14.02,2.34-21.8,2.69l-170.86-.04c-13.58-.53-25.92-2.18-36.95-9.78,2.37,16.71,22.91,23.98,38.9,23.99l166.3.06c9.13,0,17.27-2.07,25.12-5.63,7.16-3.9,13.2-9.64,14.52-18.35Z"/>
  <path class="st0" d="M183.71,53.7c-8.7-5.21-22.2-5.54-30.41-1.18l-1.56,1.07c-.41.28-1.78-.67-1.5-1.09l1.26-1.89c9.49-4.66,20.94-4.88,30.59-.45,1.38.86,2.44,2.19,1.62,3.53Z"/>
</svg>