<?xml version="1.0" encoding="UTF-8"?>
<svg id="Layer_1" xmlns="http://www.w3.org/2000/svg" version="1.1" viewBox="0 0 334.45 332.13">
  <!-- Generator: Adobe Illustrator 30.3.0, SVG Export Plug-In . SVG Version: 2.1.3 Build 182)  -->
  <defs>
    <style>
      .st0 {
        fill: #b79737;
      }
    </style>
  </defs>
  <path class="st0" d="M213.82,318.86l-92.91-.02c-1.58,3.14-4.21,5.49-7.72,5.48h-8.83c-4.08-.02-7.15-2.94-8.41-6.66-10.26-1.4-16.96-9.71-16.11-20.1.19-2.33-.66-3.93-1.98-5.81-4.82-6.92-7.78-15.43-7.12-24.43l10.19-137.61c-3.79-5.29-4.58-10.88-4.7-17.31l-1.19-65.68c-.25-13.74,5.93-25.83,18.2-32.56,7.36-4.03,15.65-6.33,24.45-6.34l98.93-.05c21.77-.01,42.72,14.18,42.45,35.56l-.91,71.81c-.07,5.58-1.74,10.22-4.72,14.63l10.28,138.23c.63,8.41-2.42,16.63-6.74,23.06-1.54,2.29-2.52,3.66-2.27,6.5.93,10.21-5.75,18.72-16.02,20.05-1.34,3.58-4.1,6.64-8.25,6.68l-8.86.07c-3.37.03-6.15-1.65-7.76-5.5ZM253.1,33.36c-5.7-14.94-22.69-21.65-37.76-21.66h-95.86c-7.4-.01-13.99,1.6-20.61,4.04-7.66,3.67-14.27,8.96-17.57,17.6l171.8.02ZM236.95,133.77c10.01,0,17.13-8.3,17.27-17.37l1-67.67c.06-4.01-.2-7.68-.87-11.46H80.01c-.76,3.43-1.08,6.58-1.01,10.1l1.37,69.82c.19,9.5,8.35,16.64,17.86,16.64l138.72-.05ZM219.63,238.17l-.08,13.22c9.01-.01,17.36,0,25.41,3.63,14.94,6.72,9.36,15.06,10.34,31.3,3.32-5.95,5.03-12.46,4.49-19.73l-9.97-133.36c-4.09,2.31-8.26,4.42-13.39,4.42l-136.79.02c-5.79,0-10.48-1.64-15.09-4.58l-10.01,134.21c-.54,7.24,1.45,13.77,4.86,19.54l-.27-20.05c-.06-4.28,3.35-7.43,6.54-9.8,4.8-2.7,9.9-4.75,15.5-5.02l13.8-.67.26-16.19c.12-7.4,7.26-13.88,15.03-13.89l73.14-.1c9.53-.01,16.29,7.62,16.23,17.05ZM188.41,261.33c3.8-3.3,9.43-2.86,12.83.35,2.87,2.72,3,6.49.63,10.21l27.24-.4c5.21-.08,10.07-1.28,14.31-4.62-6.76-5.45-18.31-4.37-27.56-4.85l-.04-24.68c-.01-6.49-4.7-11.69-10.8-12.22l-.19,9.98c-.11,6.13-5.97,10.52-12.03,10.52l-51.45-.03c-6.56,0-11.8-5.29-11.88-11.68l-.11-8.82c-5.13.63-10.39,5.02-10.44,10.79l-.26,26.05c-9.26.69-21.97-.59-27.59,5.32,5.06,2.8,9.81,4.28,15.32,4.33l21.85.22c-.98-3.4-.45-6.53,2.04-8.59,4.47-3.72,11.34-2.96,14.53,2.23.88,1.43.76,4.04.66,6.4l16.35.02c-1.03-3.65-.11-6.57,1.98-8.49,2.41-2.22,5.67-2.7,8.69-1.78,4.62,1.4,7.61,4.79,6.5,10.29l8.38-.16c-2.37-3.57-2.15-7.61,1.06-10.39ZM193.1,241.93c4.62,0,8.14-3.87,8.11-7.99l-.07-9.06h-67.88s-.09,8.37-.09,8.37c-.05,4.56,3.33,8.66,8.26,8.66h51.66ZM219.69,258.29c10.76-.46,28.9,2.24,27.26,9.3-1.21,5.19-13.44,7.99-20.09,8l-117.65.06c-8.11,0-22.22-3.12-21.65-9.21.12-1.33,1.85-3.35,3.42-4.14,10.69-5.41,23.88-3.17,23.93-4.4l.12-2.65c-9.74-.23-22.84.29-29.99,7.22-2.55,2.47-2.72,6.27-.23,8.79,6.22,6.29,17.6,8.03,27.14,8.03h110.9c9.34-.01,20.38-1.82,26.69-7.81,2.63-2.5,2.67-6.2.06-8.88-6.71-6.89-19.66-7.55-29.98-7.39l.07,3.09ZM199.66,265.65c-.67-2.04-3.45-3.04-5.17-3.03-1.48.01-4.01.95-4.7,2.43-1.59,3.42,1.46,6.58,4.65,6.83,2.73.22,6.48-2.4,5.22-6.24ZM140.92,271.26c1.21-.37,1.19-3.96.3-4.78-1.03-.95-2.86-1.84-4.76-1.96-1.66-.11-3.88,1.28-4.78,2.45-.8,1.03-.27,4.28,1.16,4.6,2.54.57,5.16.58,8.08-.32ZM174.57,271.6c.91-.15,1.42-3.51.69-4.06l-2.64-1.98c-1.66-1.25-4.62-.89-6.24.43-1.43,1.17-2.08,3.35-.65,5.63,2.33.3,6.35.39,8.85-.02ZM250.83,300.69l.78-25.73c-7.79,6.28-17.14,7.58-27.4,8.11h-112.28c-10.71-.34-20.64-1.43-28.94-8.07l.69,25.37c.3,10.95,10.94,14.71,22.03,14.71l121.65.02c11.14,0,23.11-2.93,23.46-14.43ZM221.66,321.08h8.36c1.22,0,3.25-1.07,4.19-2.4l-16.77.27c.85.97,2.94,2.13,4.22,2.13ZM116.8,318.88l-16.25-.06c1.94,2.79,4.84,2.29,7.88,2.21s6.03.9,8.37-2.15Z"/>
  <path class="st0" d="M186.25,196.31c-.05,10.36-9.03,17.87-18.61,18.09-9.61.22-18.88-7.27-19.24-17.61s-.3-20.88-.1-31.51c.2-10.83,9.27-18.64,19.41-18.47s18.75,8.39,18.7,19.16l-.15,30.34ZM182.41,196.49l.15-31.24c.04-8.58-7.42-14.81-15.48-14.68-7.5.12-14.78,6.01-14.99,14.33-.27,10.56-.3,20.92.01,31.49.24,8.19,7.4,14.19,14.96,14.3,7.44.11,15.31-5.63,15.35-14.2Z"/>
  <path class="st0" d="M153.3,262.74c-4.33.22-7.5-2.94-7.61-6.58-.1-3.62,2.67-6.83,6.68-7.15,3.89-.31,7.41,2.31,7.82,6.01.41,3.69-2.28,7.48-6.89,7.72ZM152.92,259.28c2.47-.04,3.86-1.7,3.74-3.87-.08-1.46-1.78-2.94-3.64-2.97-2.22-.04-3.99,1.75-3.83,3.61.15,1.69,1.91,3.26,3.73,3.23Z"/>
  <path class="st0" d="M182.6,259.32c-2.38,1.29-5.04,1.13-7.11-.82-1.44-1.35-2.32-3.9-1.31-6.36.84-2.04,3.3-3.79,6.03-3.54s4.85,2.04,5.35,4.53c.46,2.28-.65,4.94-2.97,6.2ZM178.62,251.91c-1.36.48-1.87,2.92-1.19,3.8.55.71,2.73,1.06,3.61.6.81-.42,1.33-2.2.99-3.05s-2.4-1.7-3.4-1.35Z"/>
  <path class="st0" d="M164.6,162.77c5.14-1.6,9.93,1.36,11.35,5.88,1.47,4.66-1.18,9.77-5.92,11.24-4.48,1.39-9.42-.87-11.05-5.22-1.75-4.67.23-10.22,5.62-11.9ZM165.59,166.23c-3.05,1-4.43,4.29-3.23,7.17,1.03,2.48,4.3,3.85,6.77,2.89,3.01-1.17,4.25-4.14,3.24-6.79s-3.82-4.24-6.78-3.26Z"/>
  <path class="st0" d="M165.55,189.39c1.87-.98,4.26-.18,5.12,1.66.75,1.6.29,4.14-1.91,5.3-1.32.7-3.8.07-4.95-1.74-.92-1.45-.18-4.21,1.74-5.22Z"/>
</svg>