<?xml version="1.0" encoding="UTF-8"?>
<svg id="Layer_1" xmlns="http://www.w3.org/2000/svg" version="1.1" viewBox="0 0 334.45 332.13">
  <!-- Generator: Adobe Illustrator 30.3.0, SVG Export Plug-In . SVG Version: 2.1.3 Build 182)  -->
  <defs>
    <style>
      .st0 {
        fill: #b79737;
      }
    </style>
  </defs>
  <path class="st0" d="M194.78,258.61c-1.22,2.13-1.94,4.9-1.94,7.97,0,1.37.14,2.67.41,3.89-1.26,5.63-4.14,10.3-8.59,13.58-3.1,1.87-6.49,3.74-10.37,2.7,6.01-3.02,10.71-6.43,13.49-12.56,2.82-6.2,2.56-13.37-.3-19.55-3.14-6.81-8.65-11.76-15.42-14.88-4.43-2.04-8.97-2.65-14-3.61,5.23-1.71,10.61-.96,15.47.85,7.08,2.64,12.72,7.58,16.62,13.98l.16-11.63c.47-4.64.97-9.25,3.3-13.42-1.15,10.94-.9,21.06.95,31.55.07.38.14.76.22,1.13ZM266.59,219.18c-7.68,14.01-17.41,26.48-28.52,37.97-19.74,20.44-46.42,41.18-69.23,58.46-.94.71-2.3.73-3.23,0l-38.37-30.06c-12.39-10.26-24.16-20.94-35.14-32.65-22.04-23.5-38.44-50.98-40.72-83.66-1.36-19.45,3.58-37.75,16.95-52.06,13.03-13.95,31.35-21.52,50.48-20.91,20.06.57,36.76,10.69,48.34,26.76,9.62-13.85,23.75-23.22,40.17-25.94,21.55-3.57,43.32,4.15,58.04,20.21,10.01,10.92,15.66,24.9,16.53,39.76,1.27,21.49-5.01,43.35-15.3,62.12ZM211.22,275.01s0,0,0,0l19.97-18.48,13.66-15.04c8.43-10.2,15.55-21.11,21.14-33.14,8.24-17.76,12.91-39.32,9.41-58.67-2.73-15.08-11.11-28.15-23.57-37.01-23.19-16.5-54.3-14.79-74.15,6.09-3.16,3.33-5.76,6.72-8.22,10.58-.55.86-1.43,1.49-2.38,1.45-.76-.03-1.74-.58-2.21-1.32-11.28-17.7-28.96-28.68-50.32-27.88-20.04.76-38.54,11.42-49.07,28.51-5.44,8.84-8.18,18.79-8.66,29.21-1,21.84,5.94,43.21,17.42,61.72,7.27,11.73,15.87,22.21,25.52,32.09,20.77,21.27,43.8,38.97,67.47,57l31.31-24.48,3.05-2.5,6.46-5.35,3.17-2.8ZM220.86,59.07l62.52,46.01c1.5,1.1,3.13,1.09,4.23-.37.77-1.03.79-2.91-.59-3.93l-50.54-37.27-62.07-44.89c-3.85-2.79-9.14-3.83-13.28-.83l-65.45,47.37-48.2,35.69c-1.42,1.05-1.45,2.79-.64,3.94s2.55,1.58,3.87.61l40.83-30.22,71.45-51.93c2.57-1.86,5.33-2.08,8.09-.08l49.77,35.9ZM141.54,139.33c.84-.05,1.44-.78,1.38-1.53-.04-.5-.74-1.15-1.35-1.21-6.63-.56-11.67-5.53-12.11-12.13-.06-.9-.82-1.54-1.6-1.47-.58.05-1.27.71-1.3,1.41-.28,6.71-5.36,11.76-12.05,12.2-.76.05-1.39.86-1.36,1.54.02.46.77,1.19,1.37,1.21,6.58.22,11.56,5.23,11.94,11.8.05.85.73,1.61,1.42,1.64.96.04,1.52-.64,1.61-1.78.54-6.51,5.67-11.29,12.05-11.68ZM121.18,137.93c3.19-1.5,5.33-3.59,6.84-6.79,1.55,3.28,3.84,5.36,7.07,6.77-3.32,1.27-5.49,3.36-7.13,6.7-1.38-3.07-3.41-5.37-6.78-6.67ZM210.04,145.21c1.17,3.73,4.84,5.97,8.62,5.33-.84-4.31-4.86-6.12-8.62-5.33ZM229.99,154.63c-2.63-1.91-3.78-4.5-4-7.65-.34-5.05-3.13-9.48-6.97-12.69-1.28-1.08-2.05-2.42-1.61-4.16l2.32-9.21c.13-.48.02-1.44-.22-1.81-1.18-1.81-7.97,2.16-11.35,4.54l.64-8.11c.05-.57-.41-1.67-.87-1.93-.44-.24-1.42-.2-2.08.08-8.47,3.64-14.95,10.58-18.41,19.15-11.1,9.32-15.37,25.89-14.1,40.04l1,11.16c.58,6.42-1.24,12.53-4.73,17.87-2.47,3.79-5.48,6.9-8.91,9.85l-9.57,8.21c-5.21,4.47-9.23,9.79-12.48,15.84-6.37,12.07-7.89,25.92-1,38.14-17.24-10.53-22.9-32.65-13.4-50.33,1.99-3.69,4.42-6.95,7.08-10.26l6.4-8.43c2.92-3.85,4.74-8.2,5.85-12.94,3.13-13.46-3.79-27.88-17.03-30.85l-1-.09c-.27-.02-.63.64-.68.91,2.51,1.51,4.49,2.77,6.56,4.55,11.63,10.49,10.43,25.6,1.12,37.53l-6.5,8.32c-3.53,4.53-6.39,9.24-8.37,14.69-8.48,23.29,5.12,48.31,28.03,55.11,2.89.86,5.97,1.64,8.81.32-9.51-3.97-15.74-11.52-16.99-21.35-1.73-13.61,4.67-26.42,14.09-36.05l8.8-8.01c3.16-2.88,6.3-5.43,9.14-8.64,6.4-7.21,9.38-16.36,8.57-26.04l-1.03-12.16c-.46-12.62,3.57-26.9,13.55-34.82,2.63-7.14,7.51-13.03,14.22-16.96-.24,4.04-1.08,11.04.88,11.81.33.14,1.14-.12,1.42-.42,2.25-2.39,4.81-4.5,7.87-6.03-1.12,5.28-2.77,9.7,1.42,13.04,3.21,2.56,5.65,6.22,5.95,10.37.29,4.21,2.06,7.54,5.55,10.29l-3.26,4.96c-1.72,2.61-4.65,3.6-7.75,3.2-5.94-.75-10.56.86-11.87,7.03-4.27-3.53-7.51-7.47-11.05-11.58,1.1,3.49,2.69,6.41,4.9,9.06l7.17,8.61c3.29,3.95,6.26,7.88,8.49,12.55,5.99,12.57,4.19,25.32-2.42,37.34-4.73,8.61-7.45,17.5-7.98,26.58-.14,2.2-.15,4.41-.02,6.63.09,1.6.25,3.2.48,4.81.24,1.71.04,3.48-.67,5.06-.78,1.73-1.89,2.79-2.93,2.79-.93,0-1.89-.83-2.65-2.22h0c-.5-.93-.9-2.09-1.12-3.43-.09-.55-.19-1.09-.34-1.62-.82-2.84-1.59-5.72-2.16-8.66-1.22,2.13-1.94,4.9-1.94,7.97,0,1.37.14,2.67.41,3.89.34,1.58.89,3,1.61,4.21.06.1.12.21.19.31,1.48,2.36,3.61,3.81,6,3.81,4.6,0,8.21-5.37,8.21-12.22,0-.41-.01-.81-.04-1.21-.08-.62-.15-1.25-.21-1.88-.01-.02-.01-.05-.01-.07-1.04-10.94.8-22.13,6.13-31.84,2.49-4.52,4.5-8.99,5.77-14,2.82-11.01,1.05-22.25-4.88-31.9l-6.92-9.27c-1.62-2.18-.14-5.86,2.19-6.82,5.41-2.24,11.64,4.72,19.85-10.51.9-1.66.24-3.43-1.15-4.45Z"/>
</svg>