<?xml version="1.0" encoding="UTF-8"?>
<svg id="Layer_1" xmlns="http://www.w3.org/2000/svg" version="1.1" viewBox="0 0 334.45 332.13">
  <!-- Generator: Adobe Illustrator 30.3.0, SVG Export Plug-In . SVG Version: 2.1.3 Build 182)  -->
  <defs>
    <style>
      .st0 {
        fill: #b79737;
      }
    </style>
  </defs>
  <path class="st0" d="M273.58,243.85c-13.31,3.9-26.36,5.94-40.57,6.8,15.11-5.78,24.32-18.56,25.43-34.74l.62-24.71c.32-12.68,6.39-23.81,16-31.96,6.3-5.35,13.83-7.49,17.62-9.07,0,0-.12-2.85-.07-3.53.03-.42-.07.4,0,0-.18-.08.21.09,0,0l-.55-15.35c-.69-19-5.06-37.19-13.98-54.05-4.97-9.39-10.5-17.98-18.28-25.22l-8.49-7.89c-19.95-18.53-54.35-29.39-81.85-30.97-36.05-2.06-67.09.75-99.02,18.38C35.61,50.79,13.49,84.95,10.73,124.64c-.29,4.15-.98,8.61-.97,12.42l.14,109.04c.01,11.07,3.01,22.32,7.58,32.45,4.46,9.88,11.65,17.45,21.11,22.64l.41,8.46c.24,4.97,4.33,9.73,9.5,9.76l18.72.13c4.82.03,9.02-3.14,9.95-8.21l7.97.44,21.56.72,94.27-.11,18.82-.61,8.95-.48c1.05,4.61,4.35,8.11,9.1,8.1h20.03c5.31-.02,9.26-4.83,9.49-9.85l.4-8.78c17.74-10.03,25.13-29.32,26.56-49.45l.91-12.74c.5-7.1-8.31,1.36-21.67,5.27ZM13.45,140.77c0-4.32.42-8.53.84-12.78l.79-8.04c3.92-40.06,30.27-73.05,66.61-89.74,16.85-7.74,34.52-12.02,53.2-13.25,32.24-2.12,64.76,1.01,93.51,16.38,38.91,20.82,58.66,57.33,59.92,100.9l.39,13.56c-13.23,4-24.1,13.43-29.34,26.46-2.14,5.32-3.99,11-4.13,16.75l-.54,22.76c-.35,14.64-8.19,26.99-22.06,32.71-8.02,3.31-16.69,5.39-26.29,5.42l-111.39.27-12.87-.92-12.48-.85c-12.22-.84-23.92-2.8-35.62-6.07-7.66-2.15-14.39-5.25-20.67-10.27l.13-93.28ZM67.57,315.72l-16.79.08c-1.66,0-5.23-.97-6.2-2.19-1.85-2.35-2.27-6.6-2-10.06,10.04,3.82,19.84,6.07,30.71,7.24.02,2.32-2.7,4.91-5.73,4.92ZM263.56,307.73c-.25,4.65-2.82,8.12-7.88,8.09l-17.19-.09c-2.69-.01-4.88-2.28-5.89-4.96,10.63-1.2,21-3.24,31.22-7.86l-.26,4.83ZM258.64,300.82c-9.84,3.91-20.05,5.54-30.79,6.42l-11.84.97H87.49s-10.38-.97-10.38-.97c-25.34-2.36-48.15-8.89-57.84-34.15-3.39-8.83-5.12-17.92-5.53-27.41l-.28-6.33c17.51,11.08,41.01,13.93,60.82,15.44,4.23.32,8.4.97,12.77.97l130.38.06,12.11-.85,9.61-.78c14.75-1.2,29.44-3.28,42.89-9.33l8.91-4c-.44,26.19-6.82,49.82-32.32,59.97Z"/>
  <path class="st0" d="M286.61,216.37l8.6-7.51c.57-.5,1.9-.58,2.44-.43s.91,2.29.51,2.68l-4.37,4.21c9.31,2.78,18.9-1.57,23.68-8.84,5.15-8.34,4.61-18.61-1.94-26.15.33-8.49,10.41,3.59,9.04,17.44-1.48,14.87-15.96,24.63-30.82,21.71l2.95,4.7c.49.81-1.66,2.83-2.64,2.48l-7.44-10.28Z"/>
  <path class="st0" d="M303.68,173.87c-9.43-2.54-20.2,3.24-24.29,12.19-6.75,14.78,5.88,23.09,2.55,25.49-2.9,2.08-12.72-13.02-5.92-27.29,5.02-10.52,16.19-16.31,27.59-14.57l-2.61-3.94c-.32-.49-.33-2.13-.11-2.7.27-.71,2.33-.67,2.86.07l6.65,9.26-9.66,9.05-1.66-1.55c-.43-.4.38-2.09.84-2.52l3.75-3.5Z"/>
  <path class="st0" d="M233.99,196.09c-.82,24.12-23.11,45.38-50.54,46.01-24.3.57-48.23.67-72.34-.02-27.18-.78-47.09-18.55-51.08-43.2l-.13-76.8c6.64-39.01,34.05-59.52,76.01-62.03,29.02-1.74,62.02.1,81.2,21.92,10.01,11.39,16.41,25.19,16.89,40.38.78,24.69.83,48.99,0,73.73ZM230.21,193.72l-.23-68.48c-.03-9.65-2.74-18.75-7-27.35-5.33-10.76-14.38-19.58-25.37-25.54-15.84-8.59-39.62-9.32-58.36-8.46-16.51.75-32.43,3.78-46.18,12.65-17.09,11.02-26.58,27.93-28.92,47.25l-.04,73.05c1.61,9.79,5,18.16,11.53,25.79,8.14,8.7,19.19,13.74,31.83,15.23l80.08-.03c25.82-3.71,39.96-20.55,42.68-44.1Z"/>
  <path class="st0" d="M183.88,228.57h-73.78c-19.25-2.32-34.68-15.6-35.53-34.27-1.04-22.89-.79-45.83-.08-68.82.41-13.18,6.64-24.59,15.16-34.42,19.25-18.97,45.03-20.42,72.25-18.74,31.64,1.95,52.05,18.6,57.51,47.81l.03,76.61c-3.11,17.42-16.31,29.73-35.56,31.83ZM211.48,196.77c.87.19,2.66.59,2.92.02l.95-2.08-.05-71.79c-4.53-29.35-23.53-44.79-55.16-46.76-21.68-1.36-45.12-.24-61.76,12.95-12.59,9.97-19.79,23.75-19.86,39.29l-.26,62.58.96,6.35c15.43-2.91,30.6-6.05,46.58-6.74,31.67-1.36,54.73-.5,85.67,6.18ZM182.25,224.44c15.42-.4,27.35-10.61,31.42-23.09-13.96-3.16-27.39-5.11-41.5-6.49l-7.62-.75h-35.53s-7.66.78-7.66.78c-14,1.41-27.4,3.33-41.09,6.5,4.29,13.46,16.45,22.62,31.63,23.04,23.34.64,46.36.63,70.34.01Z"/>
</svg>