<?xml version="1.0" encoding="UTF-8"?>
<svg id="Layer_1" xmlns="http://www.w3.org/2000/svg" version="1.1" viewBox="0 0 334.45 332.13">
  <!-- Generator: Adobe Illustrator 30.3.0, SVG Export Plug-In . SVG Version: 2.1.3 Build 182)  -->
  <defs>
    <style>
      .st0 {
        fill: #b79737;
      }
    </style>
  </defs>
  <path class="st0" d="M327.88,54.36c0-9.27-9.17-15.77-17.75-15.77l-284.97-.03c-10.14,0-18.58,7.3-18.58,17.7l-.03,218.84c0,9.87,7.02,18.38,17.32,18.39l98.63.06c.85-.02,1.82-.06,2-.06,2.71-.03,5.42-.03,8.13-.03,2.71,0,5.42,0,8.13.03-.46,0,2.8-.02,3.3.06h50.53c.9-.03,2.06-.06,2.26-.06,2.71-.03,5.42-.03,8.13-.03,2.71,0,5.42,0,8.13.03-.45,0,2.49-.01,3.21.05l93.24.03c8.83,0,18.3-6.08,18.3-15.96V54.36ZM11.37,54.89c.07-6.5,6.03-11.28,12.55-11.55h287.45c6.94.51,12.17,5.95,12.19,12.79l.03,14.86c-15.17-4.05-30.06-3.67-44.77.99-14.42,4.57-28.79,4.77-43.31.31-14.48-4.44-29.45-4.67-44.44-.92l-13.32,3.33c-14.09,3.52-28.13,2.29-41.89-2.18-15.12-4.9-30.52-4.94-45.69-.4-12.61,3.77-25.19,3.91-37.78.07-13.51-4.12-27.26-4.7-41.19-.99l.17-16.32ZM52,75.76c13.01,3.97,26.07,3.74,39.02-.19,14.89-4.52,29.67-4.3,44.43.54,13.77,4.52,28.12,5.85,42.18,2.31l14.1-3.55c14.37-3.61,28.73-3.48,42.92.86,15.07,4.61,30.14,4.49,45.09-.31,14.25-4.58,29.12-4.94,43.86-.75v176.43c-17.74-.09-33.28-8.49-51.33-8.31.63-2.14,2.01-2.78,3.82-2.99,23.22-2.65,30.69-22.73,28.25-25.66-2.66-3.21-26.77-.21-32.52,20.08-.61,2.16-.77,3.99-2.43,5.95-.46-7.91.86-15.61,3.05-23.34,13.88-7.86,23.97-23.39,22.02-39.11-.09-.73-.74-2.02-1.27-2.34-.54-.32-2.13-.27-2.82,0-15.95,6.2-25.4,23.38-21.31,40.12-2.07,7.86-2.96,15.26-3.45,23.5l-1.57-4.1c2.89-15.53-6.04-30.65-20.98-35.46-.89-.29-2.5-.26-3.13.09-.63.35-1.3,1.89-1.34,2.76-.55,15,8.38,27.92,22.12,33.54l2.52,7.63-13.49,2.79c-11.47,2.37-22.4,2.06-33.83-.79-14.65-3.65-29.26-4.84-44.08-1.63l-22.23,4.81c-.14-3.58-1.65-6.81-4.45-9.22-4.78-4.09-11.24-4.94-17.47-3.16-5.02-12.92-19.46-18.26-33.96-17.28.42-7.1,4.63-13.25,9.93-18.14,9.29-8.56,12.64-20.66,8.17-32.65-.3-.81-1.34-2-2.08-2.05-3.1-.19-.76,8.75-11.36,19.96l-6.1,6.46c-7.08,7.49-8.95,17.78-6.28,27.66l-3.54.83c-3.22-11.45-2.15-22.81,3.05-33.34l6.25-12.64c2.96-5.98,4.5-12.71,4.41-19.47-.2-14.22-7.9-23.76-13.07-36.03-2.71-8.52-2.27-17.18,2.97-24.56l-.21-1.85c-.06-.54-1.54-.77-2.31-.82-12.04,7.4-17.69,21.11-14.35,34.83,1.63,5.55,3.7,10.65,6.28,15.8,4.76,9.54,5.96,19.84,2.01,29.87l-4.96,12.59c-5.09,12.92-3.51,26.85,3.65,38.79-3.24,2.25-5.76,4.63-7.93,7.44-11.83-19.38-1.78-31.53-1.05-46.45.67-13.67-5.96-23.16-13.34-33.84-6.22-9.2-8.04-20.11-4.51-30.77-.15-.87-.35-1.79-.58-2.32-1.33-3.12-6.61,4.86-9.34,10.76-4.65,10.06-4.91,21.13-.02,31.15,6.15,12.62,16.24,19.41,10.48,37.23-5.56,17.18.6,31.55,14.98,41.82l-.24,3.23c-21.16-6.1-34.21,2.83-53.42,8.25l-.02-175.85c13.38-4.01,27.34-3.23,40.8.88ZM274.68,236.79c2.52-12.49,14.21-20.63,26.75-20.3-3.77,12.38-14.04,18.72-26.75,20.3ZM290.24,178.96l1.2.92c0,14.21-7.73,26.22-19.56,33.34-2.45-14.69,5.32-28.16,18.36-34.26ZM261.12,232.31c-11.86-4.96-19.67-16.7-19.13-29.67,12.72,4.15,20.4,16.23,19.13,29.67ZM118.05,251.62c-16.89.57-33.8-2.52-49.99-8.41.31-7.05,4.18-12.75,10.29-16.2,15.19-8.57,40-5.8,46.1,10.7-4.98,2.87-8.38,7.64-6.39,13.91ZM82.03,125.71l6.56,12.92c5.48,11.7,5.46,24.56-.35,36.1l-5.51,10.88c-5.7,11.25-6.8,23-4.01,35.75-6.01-9.48-7.21-20.72-4.11-31.35,1.33-4.56,3.24-8.81,4.94-13.22,10.24-23.36-3.07-34.6-7.07-50.89-2.29-9.3.18-18.86,6.9-25.81-2.56,8.96-1.47,17.53,2.65,25.63ZM97.64,191.65c5.45-5.03,9.71-10.52,12.13-17.42,2.41,10.82-2.62,18.62-10.1,26.06-5.82,5.23-8.48,11.65-9.92,19.64-3.96-10.37.07-21.05,7.9-28.28ZM123.76,242.25c5.11-4.26,12.65-4.59,18.24-.96,2.67,1.73,4.32,4.19,4.06,8.02-8.1,1.39-15.99,2.18-23.97,2.36-2.33-2.77-1.19-7.04,1.67-9.42ZM51.07,173.02l-6.05-9.65c-7.08-11.29-7.69-24.98-.63-36.26-.82,8.75.65,16.88,5.32,24.05l8.4,12.91c5.83,9.56,7.13,20.42,4.05,31.22-1.47,5.16-2.62,10.3-3.17,15.66-.4,9.21,3.02,16.64,7.67,25.24-6.91-4.26-11.56-10.8-14.07-18.03-2.34-6.74-1.32-13.74.73-20.45,2.59-8.46,2.46-17.15-2.26-24.68ZM11.18,254.38c7.07-2.12,13.62-4.41,20.65-6.98,11.82-4.34,24.06-4.62,36.12-.49,29.24,10,58.47,10.86,88.63,3.7,23.31-5.53,35.66-7.26,59.54-1.54,11.82,2.83,23.15,3.18,34.98.42,19.38-4.53,28.33-3.96,47.25,1.02,8.41,2.21,16.21,3.8,25.17,4.17l-.15,8.6H11.32s-.14-8.89-.14-8.89ZM309.46,289.17H23.91c-6.73-.47-12.58-5.44-12.58-12.07v-10.23s312.09.01,312.09.01l.21,8.27c.21,8.23-6,14.02-14.18,14.02Z"/>
  <path class="st0" d="M228.49,182.84c1.94,5.02-15.53,4.1-23.72-10.61-4.81,5.44-10.37,9.09-16.17,11.99l3.52,9.76c-2.89,7.43-17.1,1.52-22.83-5.91-12.92-.16-24.86-6.19-31.92-16.94-1.85-2.82-1.96-4.96-.1-7.89,6.61-10.39,18.02-16.41,30.41-17.29,5.42-6.29,13.06-10.03,21.27-9.6,2.62.14,4.44,2.05,3.97,4.57l-3.37,9.25c5.77,3,10.5,6.4,15.26,11.5,4.47-7.46,11.43-13.03,20.37-13.55l2.24.52c.61.14,1.3,1.97,1.06,2.58l-6.14,15.7,6.15,15.92ZM186.58,148.63l3.03-8.75c-6.81-.7-12.79,2.03-17.09,5.9,5.38.75,9.46,1.67,14.06,2.84ZM201.66,170.77c1.32-1.33,2.11-2.57,2.05-4.15-.05-1.19-1.12-2.51-2.21-3.61-10.56-10.69-25.19-16.05-39.95-12.58-9.52,2.24-17.7,7.75-22.4,16.63,5.62,11.03,17.13,17.04,29.46,17.57,12.64.54,24.06-4.81,33.05-13.86ZM224.78,182.14l-6.06-15.11,6.12-15.33c-7.53.28-12.78,5.01-16.6,10.91-4.88,7.54,6.56,19.2,16.54,19.53ZM188.39,193.68l-2.99-8.02-11.47,2.56c4.31,3.45,8.54,6.22,14.46,5.46Z"/>
  <path class="st0" d="M252.3,145.83c5.91-.72,10.41,3.67,10.87,8.84s-3.43,10.09-8.9,10.7c-5.12.57-9.92-3.17-10.64-8.32s2.79-10.5,8.67-11.22ZM251.23,149.55c-3.61,1.24-5.13,5.14-3.71,8.57,1.31,3.14,4.98,4.88,8.44,3.38,3.07-1.34,4.75-5.07,3.45-8.27s-4.6-4.91-8.19-3.68Z"/>
  <path class="st0" d="M261.74,121.28c4.79-1.65,9.53.93,10.81,5.5,1.14,4.05-1,8.67-5.25,10.16s-8.98-.57-10.58-4.89c-1.51-4.08.19-9.1,5.02-10.76ZM262.57,124.57c-3.06,1.49-3.56,4.67-2.5,6.69,1.38,2.62,4.15,3.35,6.16,2.54,2.92-1.17,3.87-4.26,2.87-6.69s-3.99-3.79-6.52-2.55Z"/>
  <path class="st0" d="M251.71,99.29c3.82-1.5,7.71.54,8.88,4.22,1.01,3.17-.5,6.86-4.03,8.19-3.23,1.21-7.12-.16-8.61-3.66-1.29-3.06-.17-7.2,3.76-8.74ZM253.24,102.26c-2.15.72-2.95,3.06-1.95,4.87.6,1.09,2.74,2.02,3.96,1.46,1.7-.77,2.54-2.53,2.06-4.17-.43-1.46-2.5-2.69-4.07-2.16Z"/>
  <path class="st0" d="M152.93,160.32c2.42-1.39,5.48-.32,6.62,2.02,1.03,2.13.54,5.15-2.38,6.58-1.63.8-4.52.32-5.97-1.81-1.31-1.93-1.07-5.17,1.73-6.79Z"/>
</svg>