<?xml version="1.0" encoding="UTF-8"?>
<svg id="Layer_1" xmlns="http://www.w3.org/2000/svg" version="1.1" viewBox="0 0 334.45 332.13">
  <!-- Generator: Adobe Illustrator 30.3.0, SVG Export Plug-In . SVG Version: 2.1.3 Build 182)  -->
  <defs>
    <style>
      .st0 {
        fill: #b79737;
      }
    </style>
  </defs>
  <path class="st0" d="M249.08,308.94H84.84c-.61,3.42-2.87,6.95-6.55,7.01l-12.35.2c-4.23.07-7.53-2.81-8.02-7.24l-6.2.09c-5.53.08-10.11-3.67-10.83-8.99s3.09-10.38,8.65-11.43l12.72-43.07c-3.34-5.73-1.95-12.66,3.68-16.33-26.59-34.52-35.04-79.94-22.41-121.49C60.22,52.77,110.3,16.07,167.46,15.98c54.07-.09,102.28,33.12,121.01,84.12,15.96,43.45,8.32,92.57-20.25,129.41,5.09,3.87,6.45,10.42,3.08,15.94l12.82,43.05c5.48.82,9.27,5.04,9.23,10.37-.05,4.98-4.11,9.95-9.57,10l-7.83.08c-.56,3.53-3.22,7.05-7.07,7.07l-12.34.05c-3.79.02-6.75-2.57-7.46-7.14ZM250.65,243.29c-1.74-4.58-.61-9.09,2.52-12.4,2.85-3.02,7.27-4.33,11.61-3.04,29.65-37.86,36.58-89.16,17.39-133.31-12.45-28.64-34.75-51.23-63.27-63.98-43.52-19.27-94.89-12.51-131.7,17.87-23.88,19.71-39.45,47.76-44.17,78.47-5.52,35.9,4.35,72.42,26.43,100.84,4.86-1.08,8.87.43,11.62,3.6s3.56,7.18,2.25,11.55c50.33,44.4,117.29,44.63,167.32.41ZM65.9,288.47l14.12-47.59c1.2-4.04-1.38-8.01-4.82-9.33-3.73-1.43-7.58-.11-9.74,2.86-2.39,3.28-1.46,7.28.72,10.61l-12.76,43.36,12.47.09ZM280.23,288.27l-12.84-43.28c2.72-3.47,2.91-7.57.43-10.96-2.1-2.88-6.29-3.94-9.85-2.28s-5.41,5.56-4.21,9.55l14.11,47.22,12.37-.24ZM251.75,247.33c-16.86,14.47-35.2,24.13-55.76,29.4-27.88,6.57-56.52,3.25-82.32-9.09-11.62-5.57-21.88-12.66-31.65-20.89l-12.24,41.75,194.17.02-12.21-41.18ZM284.3,305.35c3.98-1.01,5.64-3.92,5.4-7.22-.2-2.79-2.43-6.01-6.17-6.01H50.64c-4.1,0-6.46,4.08-6.15,7.27s2.88,5.97,6.82,5.97h232.99ZM77.92,312.43c1.49-.01,3.16-2.14,2.99-3.48l-19.3.03c.71,2.15,2.45,3.59,4.32,3.57l12-.11ZM268.53,312.43c1.63-.02,3.46-1.98,3.62-3.47l-19.32-.02c.45,2.09,2.24,3.63,4.35,3.61l11.35-.12Z"/>
  <path class="st0" d="M276.12,175.13c-16.98,67.78-90.25,106.89-154.07,77.02-25.41-11.89-45.81-32.06-57.24-57.77-25.94-58.41-.38-127.85,59.55-152.15,51.64-20.94,111.32-2,139.62,46.03,15.44,26.2,19.51,57.47,12.14,86.88ZM200.7,147.29c1.77-6.66,5.54-12.13,10.77-15.87,2.81-6.94,6.79-12.77,12.59-17.3,1.35-1.05,4.72-2.04,5.41.19,1.37,4.45,1.79,9.22,2.21,13.96,8.87,1.44,15.76,7.28,17.42,16.24.86,4.63,6.5,4.27,6.24,9.25-.46,9.05-7.4,16.13-16.5,16.44-11.78.4-9.87,13.63-15.86,25.11,3.07,8.17,6.13,17.17,12.19,23.74,3.15,1.49,7.51,2.73,8.07,7.25,34.13-34.33,42.23-87.31,20.96-129.9-9.06-18.14-22.76-32.81-40.06-43.23-39.91-24.04-91.23-20.17-126.98,9.73-49.99,41.81-51.52,119.7-4.26,164.93.28-10.05.35-20.43,7.16-26.37,8.86-7.48,3.43-18.69,9.42-30.51-8.69-3.47-16.66-8.03-23.15-14.91-10.79-11.42-15.32-27.48-11.01-42.52,1.43-4.99,6.44-7.44,10.85-6.09s6.67,6.06,5.63,10.7c-4.76,21.16,11.64,34.18,30.9,39.66,15.1-5.76,34.29-3.65,50.52-1.5,12.46,1.65,24.21,3.29,27.48-9.01ZM185.27,232.7c4.2-10.65,7.88-18.78,18.09-23.63,8.82-4.19,15.57-11.38,18.63-20.71l4.14-12.63c4.26-12.99,16.72-5.49,22.73-14.26-2.09-.43-3.67-1.13-3.96-2.11l4.85.58c1.54-1.92,2.47-5.29,1.67-7.35-1.79-1.65-4.81-3.39-5.22-5.84-1.53-9.07-8.36-14.84-17.61-15.29l-1.77-14.82c-6.22,4.42-9.71,10.3-12.45,17.06-5.32,3.52-8.81,8.87-10.51,15.16-4.05,14.05-17.43,12.87-31.43,10.98-17.57-2.37-33.31-3.64-50.1,1.32-21.76-5.21-39.31-20.97-33.89-44.27.73-3.13-1.28-5.81-4.17-6.19-2.37-.31-4.96,1.2-5.7,4.1-3.74,14.66.93,29.9,11.87,40.39,6.78,6.51,14.72,10.36,23.87,14-3.45,6.47-4.93,12.65-5.04,19.46-.21,13.52-9.59,15.35-11.15,22.43-1.55,7-2.06,13.63-1.18,20.67l8.05,6.08c1.66-1.03,2.83-2.85,2.53-4.22-.97-4.42-4.27-2.71-1.61-12.02,1.38-4.8,4.89-7.38,9.76-7.89,11.29-1.18,20.44-7.45,25.63-17.62.37-.72,1.62-1.52,2.3-1.41.57.1,1.49,1.96,1.19,2.45l-3.13,5.16c10.55,6.57,23.73,7.26,36.16,5.98l3.36-9.47c.23-.66,2.2-1.54,2.55-1.04s.65,1.31.9,2.2c-4.38,11.01-7.2,22.08-8.2,33.9.15,3.2-.07,6.95,3.19,8.63,1.94,1,5.94.9,8.17.15.95-.32,1.64-2.73,1.35-3.64-.97-3.02-4.96-3.52-3.88-6.28ZM239.29,229.62c.76-.88.35-3.92-.42-4.77-2.35-2.6-5.24-1.29-7.18-3.56-4.53-7.08-8.14-14.08-11.14-22.05-3.7,5.09-7.96,8.71-12.77,11.77,7.87,5.6,14.23,11.57,20.46,18.21,2.87,3.16,7.73,4.25,11.05.39ZM146.27,235.27c-2.98-2.26-4.39-6.49-5.38-9.77-.84-2.78.37-5.1,1.85-7.25l5.92-8.61-9.25-4.25c-3.14,3.29-6.59,6.26-11.13,8.4-1.73,9.29,6.16,22.15,13.51,28.28,2.15,1.8,7.73,1.47,9.82.09,1.52-1.01.83-4.11-.12-5.05s-3.87-1.25-5.22-1.85ZM108.06,240.02c39.26,26.14,86.79,24.75,124.61-4.4-3.26-.89-5.94-2.62-8.25-5.13-6.3-6.84-12.93-12.66-20.6-17.76-8.23,4.38-11.55,12.06-15.06,20.63,3.41,2,4.51,5.59,3.5,8.82-1.12,3.57-4.45,4.51-8.03,4.71-6.22.35-10.9-3.26-11.19-9.92-.36-8.38,1.71-16.69,3.67-25.01-8.59.93-16.69.42-24.63-1.36-2.27,4.21-4.71,7.53-7.78,11.34-.2,3.1,1.11,8.59,4,9.95,3.34,1.21,6.27,2.29,7.21,5.35.89,2.88.71,6.64-2.42,8.29-4,2.1-10.56,1.99-14.16-1.2-7.37-6.54-15.3-19.36-14.29-28.89l-9.88,2.13c-5.02,1.08-5.74,4.68-6.6,10.11,3.66,3.6,3.71,8.95-.1,12.34Z"/>
  <path class="st0" d="M70.68,235.34c2.12-.77,4.37.14,5.2,1.94s-.02,4.49-1.59,5.34c-2.18,1.18-4.75.11-5.57-1.55-1.07-2.14-.36-4.89,1.96-5.73Z"/>
  <path class="st0" d="M259.88,235.42c1.97-.96,4.55.24,5.28,1.86.87,1.94.04,4.55-1.59,5.33-1.95.94-4.43.22-5.3-1.1-1.31-1.99-.99-4.82,1.6-6.09Z"/>
  <path class="st0" d="M236.74,144.27c1.68-.73,3.71.08,4.2,1.57.42,1.25-.1,3.5-1.31,4.23-1.13.68-3.38.04-4.03-.95-.94-1.44-.59-4.1,1.14-4.85Z"/>
</svg>